<svg width="150" height="150" viewBox="0 0 150 150" fill="none" xmlns="http://www.w3.org/2000/svg">
<path d="M51.5625 63.2822H98.4375C101.027 63.2822 103.125 61.1845 103.125 58.5947V53.9072C103.125 51.3173 101.027 49.2197 98.4375 49.2197H51.5625C48.9727 49.2197 46.875 51.3173 46.875 53.9072V58.5947C46.875 61.1845 48.9727 63.2822 51.5625 63.2822ZM46.875 86.7197C46.875 89.3095 48.9727 91.4072 51.5625 91.4072H98.4375C101.027 91.4072 103.125 89.3095 103.125 86.7197V82.0322C103.125 79.4423 101.027 77.3447 98.4375 77.3447H51.5625C48.9727 77.3447 46.875 79.4423 46.875 82.0322V86.7197ZM75 122.207C70.1895 122.207 65.3789 120.725 61.2715 117.757L0 73.495V135.938C0 143.705 6.2959 150.001 14.0625 150.001H135.938C143.704 150.001 150 143.705 150 135.938V73.495L88.7285 117.757C84.6211 120.722 79.8105 122.207 75 122.207ZM144.612 47.7402C142.02 45.707 139.562 43.7939 135.938 41.0575V28.1259C135.938 20.3593 129.642 14.0634 121.875 14.0634H99.1553C98.2647 13.4189 97.4355 12.8154 96.5068 12.1415C91.582 8.5468 81.7969 -0.101635 75 0.000903917C68.2031 -0.101635 58.4209 8.5468 53.4932 12.1415C52.5645 12.8154 51.7354 13.4189 50.8447 14.0634H28.125C20.3584 14.0634 14.0625 20.3593 14.0625 28.1259V41.0575C10.4385 43.7909 7.98047 45.707 5.3877 47.7402C3.70945 49.0554 2.35229 50.7351 1.41889 52.6521C0.485487 54.5692 0.00028881 56.6734 0 58.8056L0 61.9257L28.125 82.2431V28.1259H121.875V82.2431L150 61.9257V58.8056C150 54.4872 148.014 50.4062 144.612 47.7402V47.7402Z" fill="#FFE8D6"/>
</svg>
